<?xml version="1.0" encoding="UTF-8"?>
<svg width="150" height="150" version="1.1" viewBox="0 0 25 25" xml:space="preserve" xmlns="http://www.w3.org/2000/svg">
    <style>
		@media (prefers-color-scheme: dark)  { .theme-fill { fill: #c8c8c8; } }
		@media (prefers-color-scheme: light) { .theme-fill { fill: #000; } }
	</style>
    <path d="m11.64 22.768-0.0079-0.0034-0.02471-0.01348a17.127 17.127 0 0 1-0.4302-0.24485 28.285 28.285 0 0 1-4.7673-3.5609c-2.5847-2.4118-5.3234-5.9906-5.3234-10.398 0-3.2891 2.7678-5.8974 6.1086-5.8974a6.1782 6.1782 0 0 1 4.8437 2.305 6.1782 6.1782 0 0 1 4.8448-2.305c3.3396 0 6.1074 2.6083 6.1074 5.8974 0 4.409-2.7386 7.9879-5.3234 10.397a28.279 28.279 0 0 1-4.7673 3.5609 17.127 17.127 0 0 1-0.43023 0.246l-0.02471 0.01348-0.0079 0.0045-0.0034 0.0011a0.84473 0.84473 0 0 1-0.79081 0l-0.0034-0.0011z" fill="#77a644" stroke-width="1.1233"/>
    <g class="theme-fill" transform="matrix(.62506 .021673 -.021673 .62506 10.231 7.7744)">
        <path d="m12 6.75a5.25 5.25 0 0 1 6.775-5.025 0.75 0.75 0 0 1 0.313 1.248l-3.32 3.319c0.063 0.475 0.276 0.934 0.641 1.299s0.824 0.578 1.3 0.64l3.318-3.319a0.75 0.75 0 0 1 1.248 0.313 5.25 5.25 0 0 1-5.472 6.756c-1.018-0.086-1.87 0.1-2.309 0.634l-7.15 8.685a3.298 3.298 0 1 1-4.644-4.643l8.684-7.151c0.533-0.44 0.72-1.291 0.634-2.309a5.342 5.342 0 0 1-0.018-0.447zm-7.883 12.375a0.75 0.75 0 0 1 0.75-0.75h8e-3a0.75 0.75 0 0 1 0.75 0.75v8e-3a0.75 0.75 0 0 1-0.75 0.75h-8e-3a0.75 0.75 0 0 1-0.75-0.75z" clip-rule="evenodd" fill-rule="evenodd"/>
        <path d="m10.076 8.64-2.201-2.2v-1.566a0.75 0.75 0 0 0-0.364-0.643l-3.75-2.25a0.75 0.75 0 0 0-0.916 0.113l-0.75 0.75a0.75 0.75 0 0 0-0.113 0.916l2.25 3.75a0.75 0.75 0 0 0 0.643 0.364h1.564l2.062 2.062 1.575-1.297z"/>
        <path d="m12.556 17.329 4.183 4.182a3.375 3.375 0 0 0 4.773-4.773l-3.306-3.305a6.803 6.803 0 0 1-1.53 0.043c-0.394-0.034-0.682-6e-3 -0.867 0.042a0.589 0.589 0 0 0-0.167 0.063zm3.414-1.36a0.75 0.75 0 0 1 1.06 0l1.875 1.876a0.75 0.75 0 1 1-1.06 1.06l-1.875-1.875a0.75 0.75 0 0 1 0-1.06z" clip-rule="evenodd" fill-rule="evenodd"/>
    </g>
</svg>
